<svg width="10" height="14" viewBox="0 0 10 14" fill="none" xmlns="http://www.w3.org/2000/svg">
<path d="M9.19952 7.35486L2.64272 13.7343C2.58248 13.7929 2.50078 13.8259 2.4156 13.8259C2.33041 13.8259 2.24871 13.7929 2.18847 13.7343L0.371837 11.9665C0.311608 11.9079 0.277771 11.8284 0.277771 11.7456C0.277771 11.6627 0.311608 11.5832 0.371837 11.5246L5.11145 6.91293L0.371837 2.30127C0.311608 2.24266 0.277771 2.16318 0.277771 2.0803C0.277771 1.99742 0.311608 1.91794 0.371837 1.85934L2.18847 0.0915247C2.24871 0.0329221 2.33041 0 2.4156 0C2.50078 0 2.58248 0.0329221 2.64272 0.0915247L9.19952 6.471C9.25917 6.52903 9.30649 6.59793 9.33878 6.67375C9.37106 6.74958 9.38768 6.83085 9.38768 6.91293C9.38768 6.99501 9.37106 7.07628 9.33878 7.15211C9.30649 7.22794 9.25917 7.29683 9.19952 7.35486Z" fill="black"/>
</svg>
